<svg width="38" height="38" viewBox="0 0 38 38" fill="none" xmlns="http://www.w3.org/2000/svg">
<g clip-path="url(#clip0_127_265)">
<path d="M8.84547 12.2246H1.21691C0.878339 12.2246 0.604004 12.4991 0.604004 12.8375V37.3448C0.604004 37.6834 0.878339 37.9577 1.21691 37.9577H8.84547C9.18404 37.9577 9.45837 37.6834 9.45837 37.3448V12.8375C9.45837 12.4991 9.18404 12.2246 8.84547 12.2246Z" fill="white"/>
<path d="M5.0339 0.0410156C2.25818 0.0410156 0 2.29674 0 5.0694C0 7.84327 2.25818 10.0999 5.0339 10.0999C7.80741 10.0999 10.0637 7.84315 10.0637 5.0694C10.0639 2.29674 7.80741 0.0410156 5.0339 0.0410156Z" fill="white"/>
<path d="M28.2492 11.6152C25.1853 11.6152 22.9204 12.9324 21.5466 14.4289V12.8372C21.5466 12.4988 21.2723 12.2243 20.9337 12.2243H13.628C13.2895 12.2243 13.0151 12.4988 13.0151 12.8372V37.3445C13.0151 37.6831 13.2895 37.9574 13.628 37.9574H21.2399C21.5785 37.9574 21.8528 37.6831 21.8528 37.3445V25.2191C21.8528 21.1331 22.9627 19.5413 25.811 19.5413C28.913 19.5413 29.1595 22.0932 29.1595 25.4293V37.3447C29.1595 37.6832 29.4338 37.9576 29.7724 37.9576H37.3871C37.7257 37.9576 38 37.6832 38 37.3447V23.902C38 17.8263 36.8415 11.6152 28.2492 11.6152Z" fill="white"/>
</g>
<defs>
<clipPath id="clip0_127_265">
<rect width="38" height="38" fill="white"/>
</clipPath>
</defs>
</svg>
